<svg xmlns="http://www.w3.org/2000/svg" width="512" height="380" viewBox="0 0 512 380">
  <metadata><?xpacket begin="﻿" id="W5M0MpCehiHzreSzNTczkc9d"?>
<x:xmpmeta xmlns:x="adobe:ns:meta/" x:xmptk="Adobe XMP Core 5.6-c140 79.160451, 2017/05/06-01:08:21        ">
   <rdf:RDF xmlns:rdf="http://www.w3.org/1999/02/22-rdf-syntax-ns#">
      <rdf:Description rdf:about=""/>
   </rdf:RDF>
</x:xmpmeta>
                                                                                                    
                                                                                                    
                                                                                                    
                                                                                                    
                                                                                                    
                                                                                                    
                                                                                                    
                                                                                                    
                                                                                                    
                                                                                                    
                                                                                                    
                                                                                                    
                                                                                                    
                                                                                                    
                                                                                                    
                                                                                                    
                                                                                                    
                                                                                                    
                                                                                                    
                                                                                                    
                           
<?xpacket end="w"?></metadata>
<defs>
    <style>
      .cls-1 {
        fill: #fff;
        fill-rule: evenodd;
      }
    </style>
  </defs>
  <path class="cls-1" d="M486.39,127.673H401.975V25.63A25.648,25.648,0,0,0,376.365,0H25.61A25.646,25.646,0,0,0,0,25.629V226.7A25.648,25.648,0,0,0,25.61,252.33h84.415V354.371A25.648,25.648,0,0,0,135.635,380H486.39A25.648,25.648,0,0,0,512,354.371V153.3A25.648,25.648,0,0,0,486.39,127.673ZM25.61,231.918A5.22,5.22,0,0,1,20.4,226.7V25.629a5.22,5.22,0,0,1,5.212-5.216H376.364a5.22,5.22,0,0,1,5.212,5.216V226.7a5.22,5.22,0,0,1-5.212,5.215H25.61ZM491.6,354.373a5.22,5.22,0,0,1-5.212,5.216H135.635a5.22,5.22,0,0,1-5.212-5.216V341.349H491.6v13.024h0Zm0-33.437H130.423V289.813H491.6v31.123h0Zm0-51.537H130.423V252.331H376.365a25.648,25.648,0,0,0,25.61-25.628V148.086H486.39A5.22,5.22,0,0,1,491.6,153.3V269.4ZM322.717,41a37.02,37.02,0,0,0-27.506,12.231,37.147,37.147,0,1,0,0,49.833A37.125,37.125,0,1,0,322.717,41ZM267.705,94.877a16.735,16.735,0,1,1,16.723-16.735A16.747,16.747,0,0,1,267.705,94.877Zm55.012,0A16.735,16.735,0,1,1,339.44,78.143,16.747,16.747,0,0,1,322.717,94.877ZM101.544,171.01H52.336a10.206,10.206,0,0,0,0,20.412h49.208A10.206,10.206,0,0,0,101.544,171.01Zm83.088,0H135.425a10.206,10.206,0,0,0,0,20.412h49.208A10.206,10.206,0,0,0,184.632,171.01Zm83.089,0H218.513a10.206,10.206,0,0,0,0,20.412h49.208A10.206,10.206,0,0,0,267.721,171.01Zm83.088,0H301.6a10.206,10.206,0,0,0,0,20.412h49.208A10.206,10.206,0,0,0,350.809,171.01ZM86.573,44.512H64.919A20.471,20.471,0,0,0,44.478,64.966V86.635a20.471,20.471,0,0,0,20.441,20.454H86.573a20.471,20.471,0,0,0,20.441-20.454V64.966A20.471,20.471,0,0,0,86.573,44.512Zm0.019,42.164h-0.02l-21.7-.042,0.044-21.711,21.7,0.042Z"/>
</svg>
