<svg xmlns="http://www.w3.org/2000/svg" width="767" height="800" viewBox="0 0 767 800">
  <metadata><?xpacket begin="﻿" id="W5M0MpCehiHzreSzNTczkc9d"?>
<x:xmpmeta xmlns:x="adobe:ns:meta/" x:xmptk="Adobe XMP Core 5.6-c140 79.160451, 2017/05/06-01:08:21        ">
   <rdf:RDF xmlns:rdf="http://www.w3.org/1999/02/22-rdf-syntax-ns#">
      <rdf:Description rdf:about=""/>
   </rdf:RDF>
</x:xmpmeta>
                                                                                                    
                                                                                                    
                                                                                                    
                                                                                                    
                                                                                                    
                                                                                                    
                                                                                                    
                                                                                                    
                                                                                                    
                                                                                                    
                                                                                                    
                                                                                                    
                                                                                                    
                                                                                                    
                                                                                                    
                                                                                                    
                                                                                                    
                                                                                                    
                                                                                                    
                                                                                                    
                           
<?xpacket end="w"?></metadata>
<defs>
    <style>
      .cls-1 {
        fill-rule: evenodd;
      }
    </style>
  </defs>
  <path class="cls-1" d="M762.721,207.02L605.76,7.877A20.434,20.434,0,0,0,589.671,0H177.5a20.436,20.436,0,0,0-16.09,7.877L4.45,207.02A20.064,20.064,0,0,0,0,219.692v559.76A20.6,20.6,0,0,0,20.54,800H746.46A20.6,20.6,0,0,0,767,779.452V219.692A20.941,20.941,0,0,0,762.721,207.02Zm-55.8-4.452h-302.8V41.1H579.743ZM187.428,41.1H363.046V202.568H60.251ZM41.08,758.9V243.665H725.92V758.9H41.08ZM603.706,389.041H183.662a20.548,20.548,0,0,0,0,41.1H603.706A20.548,20.548,0,0,0,603.706,389.041Zm-79.764,96.4H263.426a20.548,20.548,0,0,0,0,41.1H523.771A20.548,20.548,0,0,0,523.942,485.445Zm0,96.233H263.426a20.548,20.548,0,0,0,0,41.1H523.771A20.548,20.548,0,0,0,523.942,581.678Z"/>
</svg>
