<svg xmlns="http://www.w3.org/2000/svg" width="512" height="506" viewBox="0 0 512 506">
  <metadata><?xpacket begin="﻿" id="W5M0MpCehiHzreSzNTczkc9d"?>
<x:xmpmeta xmlns:x="adobe:ns:meta/" x:xmptk="Adobe XMP Core 5.6-c140 79.160451, 2017/05/06-01:08:21        ">
   <rdf:RDF xmlns:rdf="http://www.w3.org/1999/02/22-rdf-syntax-ns#">
      <rdf:Description rdf:about=""/>
   </rdf:RDF>
</x:xmpmeta>
                                                                                                    
                                                                                                    
                                                                                                    
                                                                                                    
                                                                                                    
                                                                                                    
                                                                                                    
                                                                                                    
                                                                                                    
                                                                                                    
                                                                                                    
                                                                                                    
                                                                                                    
                                                                                                    
                                                                                                    
                                                                                                    
                                                                                                    
                                                                                                    
                                                                                                    
                                                                                                    
                           
<?xpacket end="w"?></metadata>
<defs>
    <style>
      .cls-1 {
        fill: #fff;
        fill-rule: evenodd;
      }
    </style>
  </defs>
  <path class="cls-1" d="M386.959,136.119a23.341,23.341,0,0,0-17.145-7.53H357.863l1.422-21.789,1.765-27.052A74.9,74.9,0,0,0,286.287,0H226.712a74.9,74.9,0,0,0-74.763,79.748l2.648,40.575,0.539,8.266H142.164a23.265,23.265,0,0,0-23.189,25.245l3.887,45.261a23.092,23.092,0,0,0,15.272,19.892v42.172a10.2,10.2,0,0,0,20.408,0V220.368h2.741a96,96,0,0,0,175.187,41.5,52.341,52.341,0,0,0,19.513-5.856c29.488-15.76,33.007-55.285,33.142-56.96v0L393,153.833A23.306,23.306,0,0,0,386.959,136.119Zm-240.91,63.853a2.848,2.848,0,0,1-2.854-2.619l-3.883-45.261a2.864,2.864,0,0,1,2.854-3.109h14.3l3.328,50.989H146.049ZM172.318,78.42a54.492,54.492,0,0,1,54.4-58.025H286.29c1.321,0,2.631.063,3.934,0.154L274.417,62.675c-2.555,4.243-25.742,39.1-100.121,46.053ZM331.856,213.743a75.569,75.569,0,0,1-7.243,27.766q-13.132-1.444-29.9-9.683a25.552,25.552,0,1,0-12.155,16.705,132.323,132.323,0,0,0,29.561,11.395,75.544,75.544,0,0,1-130.969-46.182l-5.525-84.668c57.474-5.268,88.82-26.264,104.265-41.335q6.195,7.1,17.654,13.027c8.237,4.252,21.946,8.724,40.818,13.317Zm-56.987,12.743a5.1,5.1,0,1,1-5.1-5.1A5.106,5.106,0,0,1,274.869,226.486ZM340.685,78.419l-0.978,14.992c-18.91-4.75-28.228-8.4-32.8-10.762C295.781,76.9,293.27,72.151,293.2,70.692c0.008-.02.013-0.041,0.02-0.061s0.012-.028.017-0.042L310.046,25.8a54.529,54.529,0,0,1,16.022,11.824A53.919,53.919,0,0,1,340.685,78.419Zm7.551,158.5a96.285,96.285,0,0,0,3.484-16.553h10.469C359.115,226.664,354.659,232.861,348.236,236.921Zm20.55-39.568a2.847,2.847,0,0,1-2.854,2.619H353.206l3.327-50.989h13.282a2.864,2.864,0,0,1,2.854,3.108ZM512.461,493.986L502.6,439.557A151.441,151.441,0,0,0,381.663,317.8a152.393,152.393,0,0,0-28.1-2.621H323.848a10.213,10.213,0,0,0-7.216,2.986L256.5,378.256,196.37,318.161a10.211,10.211,0,0,0-7.215-2.986H159.44a152.428,152.428,0,0,0-28.1,2.621h0A151.439,151.439,0,0,0,10.407,439.556L0.54,493.986A10.2,10.2,0,0,0,10.581,506H502.42A10.2,10.2,0,0,0,512.461,493.986Zm-248.743-94.1,64.357-64.318h25.488q1.983,0,3.965.06L256.5,436.594l-14.756-14.747ZM159.44,335.57h25.488l57.142,57.108-14.756,14.747-71.837-71.794Q157.459,335.568,159.44,335.57ZM22.8,485.606l7.689-42.412A131.762,131.762,0,0,1,129.915,338.93l119.371,119.3a10.372,10.372,0,0,0,.775.7,10.213,10.213,0,0,0,12.881,0q0.4-.327.776-0.7l119.37-119.3a131.764,131.764,0,0,1,99.426,104.264l7.689,42.412H22.8ZM148.337,281.554a10.2,10.2,0,0,0-10.2,10.2v4.079a10.2,10.2,0,0,0,20.408,0v-4.079A10.2,10.2,0,0,0,148.337,281.554Z"/>
</svg>
