<svg xmlns="http://www.w3.org/2000/svg" width="2500" height="704" viewBox="2.146 180.818 494.707 139.364"><path fill="#6ba0ab" d="M143.5 235.26l-3.96 14 3.95-14zm20.32 30.4l-4.36-.02 4.36.02zm-1.12 20.92l-26.1.1 26.1-.1zm5.47-20.9l-4.36-.02 4.38.03zM165 284.82l4.53-17.33-4.53 17.3zM261.05 205l-8.47 39.8 8.46-39.8zm-21.77 0l-6.44 29.73 6.43-29.73zm20.32-1.8h-18.1c-1 0-2 .8-2.22 1.77l-6.42 29.74-6.43 29.76c-.22.98-1.2 1.78-2.22 1.78h-12.8c-12.67 0-11.2-8.77-8.6-20.78l.07-.36.3-1.53c0-.1.02-.2.04-.28l.6-3.1.6-3.3c.2-1 .48-2.46.67-3.38l2.92-14.27 2.92-14.28c.2-1-.45-1.8-1.45-1.8h-18.6c-1 0-2 .8-2.2 1.8l-4 18.95-4 18.96s0 0 0 .02l-.36 1.76c-4.6 21.02-3.4 41.05 21.63 41.68.4 0 .72.02.72.02h39.27c1 0 2-.8 2.22-1.8l8.47-39.8 8.46-39.8c.2-1-.44-1.8-1.45-1.8zm72.23 63.24c1 0 1.67.8 1.47 1.8l-1.76 8.58m-1.76 8.6l1.76-8.6-1.76 8.6zm-2.2 1.8c-5.32.05-21.33.17-33.37.17 14.67 0 33.4-.18 33.4-.18zm-44.17-31.85c0-.94 1.08-2.56 2.08-2.56l-2.26-.02c-1 10.25.2 2.6.2 2.6zm12.46 32.03c-.1 0-.23 0-.35 0 .14 0 .26 0 .37 0zm35.97-20.96c1 0 1.67.8 1.47 1.8l-1.76 8.58-.3 1.4m-26.8 9.15h-.08.07zm-4.45 0h-.28.26zm-1.38.02c-.14 0-.28 0-.42 0 .15 0 .3 0 .43 0zm-1.38 0h-.37.37zm2.48-.03h-1.1 1.1zm4.63 0zm23.23-.15c-3.9.03-13.56.1-23.17.14 9.6-.04 19.26-.1 23.17-.14zm2.18-1.8l1.48-7.2-1.48 7.2zm-31.57 1.96h-.96.96zm-2.7 0h-1.3 1.3zm1.36 0h-1 1zM32.03 255.6l2.8-12.48-3.2 14.25-3.1 14.52 2.7-12.74c.22-1 .58-2.6.8-3.58zm33.66-52.62H45.8c-1 0-2 .8-2.23 1.78l-1.88 8.32-1.9 8.32c-.23.98.4 1.8 1.42 1.8h20.04c1 0 2-.82 2.22-1.8l1.8-8.32 1.83-8.32c.2-.98-.42-1.78-1.43-1.78zm-4.35 27.68l-5.83 26.98 5.83-26.98zM3.6 320.06s10.02.12 16.4.12c-4.84 0-12.84-.1-16.4-.13zm34.05-89.4l-2.8 12.46 2.8-12.46zm22.27-1.8H39.88c-1 0-2 .8-2.23 1.8l-2.8 12.46-2.82 12.47c-.23.96-.58 2.57-.8 3.56l-2.7 12.72-2.7 12.72c-.2.98-.64 2.56-.96 3.52 0 0-3.74 11.14-10.04 11a94.58 94.58 0 0 1-.78 0c-3.05-.06-5.45-.1-5.45-.1-1-.02-2.02.77-2.25 1.74l-2.08 8.74-2.07 8.73c-.24.97.4 1.78 1.4 1.8 3.56.04 11.55.13 16.4.13 15.72 0 24-8.7 29.32-33.78l6.2-28.77 5.85-26.97c.2-.98-.44-1.78-1.44-1.78zm284.68 57.5c-1 0-1.65-.8-1.44-1.8l15.08-70.6m7.3 70.6l6.12-30.12-6.1 30.14zm-22.16.92c-.13-.5-.05-1.7.16-2.7l7.15-33.5-7.55 35.3c-.22 1 .43 1.8 1.44 1.8h1.82c-1 0-2.93-.4-3.05-.9zm20.98.5c-.54.2-1.82.4-2.82.4h1.83c1 0 2-.8 2.2-1.8l.35-1.8c-.2 1-1 2.97-1.56 3.2zm4.25-16.47l2.7-13.3c0 .03 0 .04 0 .04l-2.7 13.28zm59.5-50.8l.83 3.44c.23.98-.4 1.78-1.4 1.78m-61.6 58.9l2.7-13.3-2.7 13.3zm61.35-67.62l.82 3.52-.83-3.52zm-55.98 41c.2-.97.53-2.57.74-3.55l2.87-13.46-3.24 15.23-.35 1.77zm-12.82-43.4c-.2.96-.46 2.16-.63 2.96l-7.15 33.52 7.54-35.3.24-1.17zm70.44 9.33l-.83-3.43-.85-3.52-.4-1.78c-1.64-6.32-6.4-9.97-16.8-9.97l-16.14-.02h-31.6c-1 0-2 .8-2.2 1.8l-.75 3.5-.87 4.12-.24 1.17-7.54 35.3-7.15 33.5c-.2 1-.3 2.2-.16 2.7.1.5 2.03.9 3.04.9h15.1c1 0 2.28-.2 2.82-.4.55-.24 1.36-2.2 1.56-3.2l2.7-13.28 2.68-13.27s0 0 0-.02l.37-1.76 3.26-15.25 2.87-13.48c.22-.98 1.2-1.78 2.2-1.78l47.53-.03c.98 0 1.62-.8 1.4-1.77zm61.18-31.03c-1.02 0-2.66.02-3.67.02h-15.2c-1 0-2.3.68-2.87 1.5l-33.63 49.28c-.56.83-1.22.7-1.43-.27l-2.48-10.86c-.23-.98-1.23-1.78-2.23-1.78h-21.64c-1 0-1.6.77-1.33 1.73l9.7 33.94c.26.97.28 2.56.03 3.53l-4.22 16.44c-.25.97.37 1.77 1.37 1.77h21.38c1 0 2.02-.8 2.27-1.75l4.22-16.43c.24-.96.94-2.42 1.55-3.22l54.6-72.46c.6-.8.28-1.46-.73-1.45l-5.74.02zm-171.8 42.5c-.13 1.08-1.14 1.88-2.14 1.88h-27.4c-.96 0-1.44-.64-1.3-1.44 0-.02 0-.04.02-.06 0 0 0 0-.02 0 0-.02 0-.05.02-.08 0 0 .06-.2.13-.47 2.6-6.96 7.96-11.53 17.98-11.53 11.3 0 13.5 5.5 12.72 11.7zm-8.04-31.63c-35.18 0-43.52 21.36-48.2 42.9-4.68 21.98-4.27 42.52 32.14 42.52h1.3c.1 0 .22 0 .34 0h2.35c.14 0 .3 0 .43 0H300c1.43-.03 2.9-.03 4.36-.04h.07c9.62-.04 19.26-.1 23.17-.14 1-.02 1.98-.82 2.18-1.8l1.48-7.2.28-1.4 1.76-8.6c.2-.98-.45-1.8-1.46-1.8H299.1c-13 0-16.88-3.45-15.45-13.62h52.32v.02s.02 0 .03 0c.83-.03 1.6-.6 1.9-1.36.07-.15.1-.3.13-.46 7.76-29.3 5.53-49.03-27.75-49.03zm-166.3 31.53l-.5 1.75-3.94 14-3.95 14c-.28.97-1.33 1.77-2.34 1.77h-20.9c-15.87 0-19.73-12.4-15.87-30.7 3.85-18.73 11.42-30.36 27.03-31.54 21.33-1.6 25.6 13.4 20.45 30.72zm14.35 30.44s9.87-23.94 12.1-37.77c3.07-18.5-6.2-45.35-42-45.35-35.6 0-51.04 25.63-56.94 53.5-5.9 28.05 1.83 52.66 37.22 52.46l27.92-.1 26.1-.1c1 0 2.02-.8 2.28-1.77l4.55-17.32c.25-.98-.37-1.78-1.37-1.78l-4.36-.03-4.35-.03c-.86 0-1.35-.56-1.24-1.3a1.65 1.65 0 0 1 .1-.4zm176.22-16.02c0 .66-.54 1.2-1.2 1.2-.66 0-1.2-.54-1.2-1.2s.54-1.2 1.2-1.2c.66 0 1.2.53 1.2 1.2z"/></svg>