<svg xmlns="http://www.w3.org/2000/svg" width="2500" height="2438" viewBox="0 130.746 595.279 580.398"><radialGradient id="a" cx="-183.69" cy="328.972" r=".76" gradientTransform="matrix(545.674 0 0 528.311 100439.305 -173525.125)" gradientUnits="userSpaceOnUse"><stop offset="0" stop-color="#34364e" stop-opacity=".98"/><stop offset="1" stop-color="#0c0824"/></radialGradient><path fill="url(#a)" d="M24.8 155.55h545.68v530.8H24.8v-530.8z"/><path fill="#31c5f0" d="M24.8 155.55h545.68v530.8H24.8v-530.8zM0 711.15h595.28v-580.4H0v580.4zm401.32-342.3c-19.6 0-26.3 9.93-26.3 18.1 0 8.94 4.47 15.14 30.76 28.8 38.94 18.84 51.1 36.94 51.1 63.48 0 39.7-30.26 61.02-71.2 61.02-21.57 0-40.17-4.47-50.84-10.67-1.73-.74-1.98-1.98-1.98-3.96v-36.47c0-2.48 1.24-3.22 2.98-1.98 15.62 10.17 33.48 14.63 49.85 14.63 19.6 0 27.76-8.18 27.76-19.34 0-8.93-5.7-16.87-30.76-29.77-35.2-16.88-49.84-34-49.84-62.5 0-32 25.05-58.56 68.46-58.56 21.33 0 36.2 3.23 44.4 6.95 1.98 1.23 2.48 3.2 2.48 4.95v33.98c0 1.98-1.24 3.22-3.72 2.48-10.92-6.93-27.04-11.15-43.16-11.15zm-213.3 29.52c5.7.5 10.16.5 20.08.5 29.02 0 56.3-10.17 56.3-49.6 0-31.5-19.6-47.38-52.58-47.38-9.92 0-19.35.5-23.8.72v95.74zm-44.16-131.7c0-1.74 3.47-2.98 5.46-2.98 15.87-.76 39.43-1.26 64-1.26 68.7 0 95.48 37.7 95.48 85.82 0 63-45.64 90.04-101.7 90.04-9.42 0-12.64-.5-19.34-.5v95.26c0 1.98-.74 2.97-2.97 2.97h-37.97c-2 0-2.98-.74-2.98-2.97v-266.4z"/></svg>